<svg width="66" height="66" viewBox="0 0 66 66" fill="none" xmlns="http://www.w3.org/2000/svg">
<path d="M3 62.5999L2.4 62.6999L0 65.0999C7.7 63.4999 18.9 62.3999 31.3 62.3999C43.7 62.3999 54.9 63.4999 62.6 65.0999L65.2 62.4999C57.2 60.7999 46 59.8999 34.2 59.8999C22.4 59.9999 11 60.9999 3 62.5999Z" fill="#FDFEFF"/>
<path d="M2.4 62.9L2.5 62.3C4.2 54.3 5.2 42.9 5.2 31C5.2 19.2 4.2 8 2.6 0L0 2.6C1.6 10.3 2.7 21.5 2.7 33.9C2.7 46.3 1.6 57.5 0 65.2L2.4 62.9Z" fill="#FDFEFF"/>
<path d="M64.9999 0.100098C56.9999 1.7001 45.8999 2.7001 34.1999 2.7001C22.5999 2.7001 11.3999 1.8001 3.3999 0.100098C4.9999 8.1001 5.9999 19.3001 5.9999 30.9001C5.9999 42.6001 5.0999 53.7001 3.3999 61.7001C11.3999 60.1001 22.5999 59.1001 34.1999 59.1001C45.8999 59.1001 56.9999 60.0001 64.9999 61.7001C63.3999 53.7001 62.3999 42.6001 62.3999 30.9001C62.4999 19.3001 63.3999 8.1001 64.9999 0.100098ZM44.3999 15.2001C44.4999 15.3001 44.4999 15.3001 44.4999 15.5001V15.7001H44.5999C44.5999 15.7001 45.3999 15.8001 45.3999 16.9001V17.0001H45.4999C45.4999 17.0001 46.1999 17.4001 46.2999 18.0001C46.2999 18.2001 46.2999 18.3001 46.1999 18.4001C46.0999 18.4001 45.7999 18.4001 45.5999 18.4001C45.0999 18.4001 44.6999 18.3001 44.5999 18.1001C44.5999 18.1001 43.7999 17.8001 42.9999 17.2001L42.8999 17.1001H42.7999C42.7999 17.1001 42.4999 17.3001 42.1999 17.3001C41.8999 17.3001 41.4999 17.1001 41.0999 16.9001L40.9999 16.8001L40.8999 16.9001C40.8999 16.9001 40.7999 17.0001 40.5999 17.1001H40.4999C40.1999 17.1001 39.8999 17.0001 39.4999 16.7001H39.3999L39.2999 16.9001C39.2999 16.9001 39.0999 17.3001 38.0999 17.3001C37.8999 17.3001 37.7999 17.3001 37.6999 17.3001C37.4999 17.2001 36.3999 16.8001 35.2999 16.6001L34.8999 16.5001C35.2999 16.4001 35.5999 16.2001 35.9999 16.1001C36.4999 15.9001 37.0999 15.8001 37.0999 15.8001C37.9999 15.4001 38.1999 14.9001 38.2999 14.6001C38.6999 14.6001 38.8999 14.5001 39.0999 14.4001C39.0999 14.4001 39.6999 14.1001 40.2999 14.1001C40.4999 14.1001 40.6999 14.2001 40.6999 14.3001C40.7999 14.4001 40.7999 14.5001 40.7999 14.6001V14.9001L40.9999 14.8001C40.9999 14.8001 41.7999 14.4001 42.3999 14.4001C42.5999 14.4001 42.6999 14.4001 42.7999 14.5001C42.7999 14.6001 42.7999 14.7001 42.7999 14.8001L42.6999 15.0001H42.8999C42.8999 15.0001 43.1999 14.9001 43.3999 14.9001C43.9999 14.9001 44.2999 15.0001 44.3999 15.2001ZM40.3999 23.6001C40.3999 23.6001 40.7999 24.2001 40.0999 24.8001L39.9999 24.9001V25.0001C39.9999 25.2001 40.0999 25.8001 39.8999 26.1001L39.5999 26.3001C39.1999 25.9001 38.8999 25.4001 38.8999 25.1001C38.8999 25.1001 38.4999 24.4001 38.4999 23.5001V23.3001H38.3999C38.3999 23.3001 37.6999 22.9001 37.6999 22.0001V21.9001H37.5999C37.5999 21.9001 37.0999 21.9001 36.8999 20.7001V20.5001L36.6999 20.6001C36.6999 20.6001 36.2999 20.8001 35.5999 19.7001C35.4999 19.5001 35.0999 18.3001 34.5999 17.4001C35.5999 18.1001 36.7999 19.5001 36.7999 19.5001C37.1999 19.9001 37.6999 20.0001 37.9999 20.0001C38.2999 20.0001 38.3999 19.9001 38.4999 19.8001C38.5999 20.0001 38.7999 20.2001 38.8999 20.2001L38.7999 20.3001L38.5999 20.4001L38.7999 20.5001C39.1999 20.8001 39.9999 21.3001 39.8999 21.6001L39.6999 21.8001L39.4999 21.9001L39.6999 22.1001C39.8999 22.3001 40.3999 22.9001 40.3999 23.3001V23.6001ZM28.6999 26.3001L28.3999 26.1001C28.0999 25.7001 28.2999 25.0001 28.2999 25.0001V24.9001L28.1999 24.8001C27.5999 24.3001 27.8999 23.6001 27.8999 23.6001L27.9999 23.5001L27.8999 23.4001L27.6999 23.1001C27.6999 22.7001 28.1999 22.1001 28.3999 21.9001L28.5999 21.7001L28.3999 21.6001L28.1999 21.4001C28.1999 21.1001 28.7999 20.6001 29.2999 20.3001L29.4999 20.2001L29.2999 20.1001L29.1999 20.0001C29.2999 19.9001 29.3999 19.7001 29.5999 19.6001C29.6999 19.7001 29.8999 19.8001 30.0999 19.8001C30.4999 19.8001 30.8999 19.6001 31.2999 19.3001C31.2999 19.3001 32.4999 17.9001 33.4999 17.2001C33.0999 18.1001 32.5999 19.3001 32.4999 19.5001C31.8999 20.6001 31.3999 20.4001 31.3999 20.4001L31.1999 20.3001V20.5001C31.0999 21.6001 30.4999 21.7001 30.4999 21.7001H30.3999V21.9001C30.3999 23.0001 29.6999 23.2001 29.6999 23.2001H29.5999V23.3001C29.5999 24.2001 29.1999 24.9001 29.1999 24.9001C29.3999 25.4001 28.9999 25.9001 28.6999 26.3001ZM24.1999 22.4001C23.8999 21.2001 24.5999 20.7001 24.5999 20.6001L24.6999 20.5001V20.4001C24.5999 20.2001 24.5999 20.0001 24.6999 19.8001C24.9999 19.2001 25.9999 18.9001 25.9999 18.9001H26.1999L26.0999 18.7001C25.9999 18.5001 25.9999 18.3001 26.0999 18.3001C26.3999 17.9001 27.2999 17.8001 27.6999 17.8001H27.8999L27.7999 17.6001V17.4001H27.8999C28.1999 17.4001 28.4999 17.3001 28.8999 17.0001C29.0999 17.2001 29.2999 17.4001 30.1999 17.4001C30.3999 17.4001 30.5999 17.4001 30.6999 17.4001C30.6999 17.4001 32.4999 16.7001 33.4999 16.6001H33.6999L33.3999 16.8001L32.9999 17.1001C32.0999 17.8001 31.0999 19.0001 30.9999 19.1001C30.5999 19.4001 30.1999 19.5001 29.8999 19.5001C29.5999 19.5001 29.4999 19.3001 29.4999 19.3001L29.3999 19.5001C29.1999 19.8001 29.0999 19.9001 28.9999 20.1001L28.8999 20.2001C28.5999 20.5001 28.4999 20.5001 28.3999 20.5001L28.1999 20.4001L28.0999 20.3001L27.9999 20.5001C27.4999 21.6001 26.7999 21.7001 26.6999 21.7001H26.5999H26.4999V21.8001C25.9999 23.0001 25.2999 23.6001 25.2999 23.6001C25.0999 24.0001 24.2999 24.5001 23.9999 24.6001C23.2999 23.8001 24.1999 22.5001 24.1999 22.4001ZM30.1999 37.2001H33.6999L32.9999 34.0001L33.4999 33.5001L32.7999 30.6001L33.3999 30.3001L32.5999 27.1001L33.2999 26.6001L32.6999 23.9001L33.3999 23.5001L32.9999 21.1001L33.4999 20.7001L33.3999 18.1001C33.3999 18.0001 33.6999 17.3001 34.1999 16.8001C34.7999 17.3001 34.9999 18.1001 34.9999 18.1001L34.8999 20.7001L35.3999 21.1001L34.9999 23.5001L35.6999 23.9001L35.0999 26.6001L35.7999 27.1001L35.0999 30.3001L35.5999 30.6001L34.8999 33.5001L35.3999 34.0001L34.8999 37.2001H38.2999C38.2999 37.2001 38.6999 37.4001 38.5999 37.7001C38.3999 38.1001 36.5999 39.8001 36.5999 39.7001C36.3999 39.6001 36.3999 38.9001 36.2999 38.8001C36.1999 38.7001 35.4999 39.5001 35.0999 39.7001C35.0999 39.7001 34.6999 39.3001 34.1999 39.0001C33.6999 39.4001 33.0999 39.7001 33.0999 39.7001C32.6999 39.5001 32.1999 38.7001 32.1999 38.8001C32.0999 38.9001 32.0999 39.6001 31.8999 39.7001C31.6999 39.8001 29.8999 38.0001 29.8999 37.7001C29.7999 37.3001 30.1999 37.2001 30.1999 37.2001ZM40.3999 20.4001L40.2999 20.2001L40.1999 20.3001C40.1999 20.3001 40.0999 20.4001 39.9999 20.4001C39.8999 20.4001 39.5999 20.3001 39.4999 20.1001L39.3999 20.0001C39.2999 19.8001 39.0999 19.6001 38.9999 19.4001L38.8999 19.2001L38.7999 19.3001L38.6999 19.4001C38.6999 19.4001 38.5999 19.6001 38.2999 19.6001C37.9999 19.6001 37.6999 19.4001 37.1999 19.2001C37.0999 19.0001 35.9999 18.0001 35.1999 17.2001C34.9999 17.1001 34.8999 17.0001 34.7999 16.9001L34.4999 16.7001H34.6999C35.8999 16.9001 37.4999 17.5001 37.4999 17.5001C37.6999 17.5001 37.8999 17.5001 37.9999 17.5001C38.7999 17.5001 39.1999 17.2001 39.2999 17.1001C39.6999 17.4001 39.9999 17.5001 40.3999 17.5001H40.4999V17.7001L40.3999 17.9001H40.5999C40.9999 17.9001 41.8999 18.0001 42.1999 18.4001C42.2999 18.5001 42.2999 18.7001 42.1999 18.8001L42.0999 19.0001L42.2999 19.1001C42.2999 19.1001 43.2999 19.4001 43.5999 20.0001C43.6999 20.2001 43.6999 20.4001 43.5999 20.6001V20.7001L43.6999 20.8001C43.6999 20.8001 44.4999 21.3001 44.0999 22.6001V22.7001V22.8001C44.0999 22.8001 44.9999 24.1001 44.4999 24.8001C44.0999 24.6001 43.2999 24.3001 43.1999 23.8001C43.1999 23.8001 42.4999 23.1001 41.9999 22.0001L41.8999 21.9001H41.7999H41.6999C41.4999 21.6001 40.8999 21.5001 40.3999 20.4001ZM41.2999 11.1001H41.4999C41.4999 11.1001 41.6999 11.0001 41.8999 11.0001C42.1999 11.0001 42.3999 11.2001 42.5999 11.5001V11.6001H42.6999H42.7999C42.9999 11.6001 43.4999 11.6001 43.6999 11.9001C43.7999 12.0001 43.7999 12.1001 43.7999 12.3001C43.4999 12.5001 42.9999 12.9001 42.5999 12.9001H42.4999C42.4999 12.9001 42.0999 13.1001 41.3999 13.1001C41.1999 13.1001 41.0999 13.1001 40.9999 13.1001H40.8999V13.2001C40.8999 13.2001 40.4999 13.7001 39.7999 13.7001H39.4999V13.8001C39.4999 13.8001 39.4999 14.0001 39.2999 14.1001L39.1999 14.2001L38.8999 14.3001H38.7999C38.6999 14.3001 38.4999 14.3001 38.3999 14.3001H38.2999H38.1999C38.1999 14.4001 38.1999 14.8001 37.1999 15.4001C36.9999 15.4001 36.0999 15.7001 35.2999 15.9001C34.9999 16.0001 34.8999 16.1001 34.5999 16.2001L34.8999 15.8001C35.3999 15.3001 36.0999 14.6001 36.0999 14.6001C36.5999 13.9001 36.5999 13.4001 36.5999 13.3001C37.1999 12.9001 37.2999 12.5001 37.2999 12.3001C37.5999 12.2001 37.6999 12.0001 37.8999 11.9001C37.9999 11.9001 38.0999 11.9001 38.0999 12.1001L38.1999 12.3001L38.2999 12.1001C38.5999 11.7001 39.0999 11.1001 39.3999 11.1001C39.3999 11.1001 39.4999 11.1001 39.5999 11.3001L39.6999 11.5001L39.8999 11.3001C40.0999 11.1001 40.5999 10.8001 40.9999 10.8001C41.1999 10.8001 41.1999 10.9001 41.2999 11.1001ZM35.6999 11.5001L35.8999 11.7001L35.9999 11.4001C36.0999 10.9001 36.3999 10.2001 36.4999 10.2001L36.5999 10.3001L36.7999 10.5001L36.8999 10.3001C36.9999 10.0001 37.2999 9.4001 37.6999 9.4001L37.8999 9.5001L37.9999 9.6001L38.0999 9.5001C38.0999 9.5001 38.2999 9.2001 38.4999 9.2001C38.6999 9.2001 38.7999 9.3001 38.8999 9.4001L38.9999 9.5001H39.0999C39.0999 9.5001 39.4999 9.3001 39.6999 9.3001C39.8999 9.3001 40.0999 9.4001 40.0999 9.5001C39.8999 9.9001 39.6999 10.4001 39.3999 10.4001C39.3999 10.4001 38.9999 10.8001 38.1999 11.1001H38.0999V11.2001C38.0999 11.2001 38.0999 11.4001 37.8999 11.6001C37.7999 11.8001 37.4999 12.0001 37.2999 12.0001H37.1999V12.2001V12.3001V12.4001C37.1999 12.5001 37.1999 12.7001 36.9999 12.8001C36.8999 12.9001 36.6999 13.0001 36.5999 13.2001L36.4999 13.3001L36.5999 13.4001C36.5999 13.4001 36.7999 13.8001 36.1999 14.6001C36.0999 14.7001 35.6999 15.0001 35.1999 15.4001L34.8999 15.7001L34.5999 16.0001L34.6999 15.8001C35.0999 14.7001 35.5999 12.7001 35.7999 11.4001L35.6999 11.5001ZM33.0999 10.5001L33.1999 10.3001C33.0999 9.3001 33.1999 8.5001 33.3999 8.3001L33.4999 8.2001H33.5999L33.7999 8.3001C33.9999 7.6001 34.1999 7.1001 34.3999 6.9001C34.5999 7.1001 34.7999 7.5001 34.9999 8.3001V8.5001L35.1999 8.4001H35.2999L35.3999 8.5001C35.5999 8.8001 35.6999 9.6001 35.5999 10.5001V10.7001H35.6999C35.6999 10.8001 35.6999 11.1001 35.5999 11.4001V11.6001L35.4999 12.0001C35.2999 12.9001 34.9999 14.1001 34.5999 15.5001V15.6001L34.4999 16.0001V15.9001L34.3999 15.5001V15.3001C33.9999 14.1001 33.6999 12.7001 33.4999 11.8001L33.3999 11.4001V11.3001C33.0999 10.9001 33.0999 10.6001 33.0999 10.5001ZM28.8999 9.3001C29.1999 9.3001 29.4999 9.5001 29.4999 9.5001H29.5999L29.6999 9.4001C29.8999 9.3001 29.9999 9.2001 30.0999 9.2001C30.3999 9.2001 30.4999 9.5001 30.4999 9.5001L30.5999 9.6001L30.6999 9.5001L30.8999 9.4001C31.1999 9.4001 31.4999 10.0001 31.5999 10.3001L31.6999 10.5001L31.7999 10.3001L31.8999 10.2001C32.0999 10.2001 32.2999 10.8001 32.3999 11.4001V11.7001L32.5999 11.5001L32.7999 11.4001C33.0999 12.6001 33.5999 14.7001 33.8999 15.8001L33.9999 16.0001L33.6999 15.7001L33.3999 15.4001C32.9999 15.0001 32.4999 14.6001 32.3999 14.6001C31.7999 13.8001 31.9999 13.4001 31.9999 13.4001L32.0999 13.3001L31.9999 13.2001C31.7999 13.1001 31.5999 13.0001 31.5999 12.8001C31.3999 12.6001 31.3999 12.4001 31.3999 12.4001V12.3001H31.2999C30.8999 12.2001 30.7999 12.0001 30.6999 11.9001C30.4999 11.6001 30.4999 11.5001 30.4999 11.5001V11.3001H30.3999C29.7999 11.0001 29.1999 10.6001 29.1999 10.6001C28.8999 10.6001 28.6999 10.1001 28.4999 9.7001C28.4999 9.3001 28.6999 9.3001 28.8999 9.3001ZM24.8999 12.0001C25.1999 11.7001 25.6999 11.7001 25.7999 11.7001H25.8999H25.9999V11.6001C26.1999 11.2001 26.3999 11.1001 26.6999 11.1001C26.8999 11.1001 27.0999 11.2001 27.0999 11.2001L27.1999 11.3001L27.2999 11.2001C27.3999 11.0001 27.4999 10.9001 27.6999 10.9001C28.0999 10.9001 28.7999 11.4001 28.7999 11.4001L28.9999 11.6001L29.0999 11.4001C29.0999 11.2001 29.1999 11.2001 29.2999 11.2001C29.5999 11.2001 30.0999 11.8001 30.3999 12.2001L30.4999 12.4001L30.5999 12.2001C30.6999 12.0001 30.7999 12.0001 30.8999 12.0001C31.0999 12.2001 31.2999 12.4001 31.4999 12.4001C31.4999 12.6001 31.5999 13.0001 32.1999 13.4001C32.0999 13.6001 32.0999 14.1001 32.5999 14.7001C32.5999 14.7001 33.2999 15.2001 33.7999 15.9001L34.0999 16.3001C33.8999 16.2001 33.6999 16.1001 33.3999 16.0001C32.5999 15.7001 31.6999 15.5001 31.4999 15.5001C30.4999 15.1001 30.4999 14.5001 30.4999 14.4001V14.3001H30.3999H30.2999C30.0999 14.3001 29.9999 14.3001 29.8999 14.3001H29.7999L29.4999 14.2001L29.3999 14.1001C29.1999 13.9001 29.1999 13.8001 29.1999 13.8001V13.7001H29.0999H28.7999C28.0999 13.7001 27.6999 13.2001 27.6999 13.2001L27.5999 13.1001H27.4999C27.2999 13.1001 27.1999 13.1001 27.0999 13.1001C26.4999 13.1001 25.9999 12.9001 25.9999 12.9001H25.8999C25.4999 12.9001 24.9999 12.5001 24.6999 12.3001C24.6999 12.1001 24.7999 12.1001 24.8999 12.0001ZM22.0999 17.9001C22.1999 17.4001 22.8999 16.9001 22.8999 16.9001H22.9999V16.8001C22.9999 15.7001 23.7999 15.6001 23.7999 15.6001H23.8999V15.4001C23.8999 15.2001 23.8999 15.1001 23.9999 15.0001C24.1999 14.8001 24.4999 14.7001 24.9999 14.7001C25.2999 14.7001 25.4999 14.8001 25.4999 14.8001H25.6999L25.5999 14.6001C25.5999 14.5001 25.5999 14.3001 25.5999 14.3001C25.6999 14.2001 25.7999 14.2001 25.9999 14.2001C26.4999 14.2001 27.3999 14.6001 27.3999 14.6001L27.5999 14.7001V14.4001C27.5999 14.2001 27.5999 14.1001 27.6999 14.1001C27.7999 14.0001 27.9999 13.9001 28.0999 13.9001C28.5999 13.9001 29.2999 14.2001 29.2999 14.2001H29.3999C29.5999 14.3001 29.7999 14.4001 30.1999 14.4001C30.1999 14.7001 30.4999 15.1001 31.3999 15.6001C31.3999 15.6001 31.7999 15.7001 32.4999 15.9001C32.8999 16.0001 33.1999 16.1001 33.5999 16.3001L33.1999 16.4001C32.0999 16.7001 30.9999 17.1001 30.7999 17.1001C30.5999 17.1001 30.3999 17.1001 30.3999 17.1001C29.3999 17.1001 29.1999 16.7001 29.1999 16.7001L29.0999 16.5001L28.9999 16.6001C28.5999 16.9001 28.2999 17.0001 27.9999 17.0001H27.8999H27.7999C27.5999 16.9001 27.4999 16.8001 27.4999 16.8001L27.3999 16.7001L27.2999 16.8001C26.8999 17.1001 26.5999 17.2001 26.1999 17.2001C25.7999 17.2001 25.5999 17.0001 25.5999 17.0001H25.4999L25.3999 17.1001C24.5999 17.7001 23.7999 18.0001 23.7999 18.0001C23.5999 18.2001 23.3999 18.3001 22.7999 18.3001C22.4999 18.3001 22.3999 18.3001 22.1999 18.3001C22.0999 18.3001 22.0999 18.1001 22.0999 17.9001ZM42.7999 42.1001C40.3999 43.7001 37.9999 45.6001 35.8999 47.4001C37.0999 48.5001 38.1999 49.5001 39.2999 50.8001L39.3999 50.7001H39.6999L39.7999 50.9001L39.9999 50.6001C39.8999 50.3001 39.9999 50.0001 40.2999 49.8001C40.6999 49.5001 40.9999 49.5001 41.2999 49.8001C41.5999 50.1001 41.4999 50.5001 41.1999 50.8001C40.9999 51.0001 40.7999 51.1001 40.4999 51.0001C40.2999 51.3001 40.3999 51.4001 40.3999 51.4001C40.6999 52.1001 41.9999 52.6001 43.0999 52.6001C43.8999 52.6001 44.3999 52.3001 45.1999 51.5001C46.0999 50.6001 46.8999 51.5001 46.8999 51.5001C48.0999 53.4001 45.5999 55.0001 43.7999 55.1001C41.5999 55.1001 39.4999 53.8001 38.9999 53.1001C38.7999 52.9001 38.5999 52.8001 38.4999 52.9001C38.3999 52.9001 38.2999 53.1001 38.2999 53.3001C38.2999 53.6001 38.1999 53.7001 37.9999 53.9001C37.6999 54.2001 37.2999 54.2001 36.9999 53.9001C36.6999 53.6001 36.7999 53.2001 37.0999 52.9001C37.2999 52.7001 37.4999 52.7001 37.5999 52.7001H37.6999L37.5999 52.6001V52.3001L37.8999 52.0001C37.4999 51.6001 36.0999 50.2001 34.1999 48.6001C32.3999 50.2001 31.0999 51.5001 30.4999 52.0001L30.7999 52.3001V52.6001L30.6999 52.7001H30.7999C30.9999 52.7001 31.1999 52.8001 31.2999 52.9001C31.5999 53.2001 31.6999 53.6001 31.3999 53.9001C31.0999 54.2001 30.6999 54.2001 30.3999 53.9001C30.1999 53.7001 30.0999 53.5001 30.0999 53.3001C30.0999 53.1001 29.9999 53.0001 29.8999 52.9001C29.6999 52.8001 29.5999 52.9001 29.3999 53.1001C28.8999 53.7001 26.8999 55.1001 24.6999 55.1001C22.7999 55.1001 20.1999 53.4001 21.5999 51.5001C21.5999 51.5001 22.3999 50.6001 23.2999 51.5001C24.0999 52.3001 24.5999 52.6001 25.3999 52.6001C26.3999 52.6001 27.6999 52.0001 27.9999 51.4001C27.9999 51.4001 28.0999 51.1001 27.8999 51.0001C27.6999 51.1001 27.4999 51.0001 27.1999 50.8001C26.8999 50.5001 26.7999 50.1001 27.0999 49.8001C27.3999 49.5001 27.7999 49.5001 28.0999 49.8001C28.3999 50.0001 28.4999 50.3001 28.3999 50.6001L28.5999 50.9001V50.7001H28.8999L28.9999 50.8001C30.1999 49.6001 31.2999 48.5001 32.3999 47.4001C30.3999 45.7001 27.8999 43.7001 25.4999 42.1001C17.8999 37.0001 12.1999 37.6001 12.1999 37.6001C16.4999 36.0001 21.8999 37.6001 24.2999 38.9001C26.0999 39.9001 29.7999 42.2001 33.9999 45.8001C38.1999 42.1001 41.9999 39.8001 43.6999 38.9001C46.1999 37.5001 51.4999 36.0001 55.7999 37.6001C56.0999 37.4001 50.3999 37.0001 42.7999 42.1001Z" fill="#FDFEFF"/>
</svg>
